<svg xmlns="http://www.w3.org/2000/svg" width="1000" height="400" viewBox="0 0 1000 400" font-family="'Noto Sans CJK KR','Noto Sans KR','Malgun Gothic','Apple SD Gothic Neo',sans-serif"><defs><marker id="ar" markerWidth="10" markerHeight="10" refX="9" refY="5" orient="auto"><path d="M0,0 L10,5 L0,10 z" fill="#374151"/></marker><marker id="arC" markerWidth="10" markerHeight="10" refX="9" refY="5" orient="auto"><path d="M0,0 L10,5 L0,10 z" fill="#E76F51"/></marker></defs><rect width="1000" height="400" fill="white"/><text x="500.0" y="32" text-anchor="middle" font-size="22" font-weight="700" fill="#1F3A5F">두 원자료의 구조와 결합 (Id + 날짜)</text><rect x="40" y="70" width="280" height="236" rx="10" fill="white" stroke="#1F3A5F" stroke-width="2"/><rect x="40" y="70" width="280" height="44" rx="10" fill="#1F3A5F"/><text x="180" y="90" text-anchor="middle" font-size="15" font-weight="700" fill="white">dailyActivity_merged.csv</text><text x="180" y="107" text-anchor="middle" font-size="12" fill="white">940행 × 15열 · 33명</text><text x="56" y="136" font-size="13" fill="#E76F51" font-weight="700">Id</text><text x="304" y="136" text-anchor="end" font-size="12" fill="#6B7280">사용자</text><text x="56" y="162" font-size="13" fill="#E76F51" font-weight="700">ActivityDate</text><text x="304" y="162" text-anchor="end" font-size="12" fill="#6B7280">4/12/2016</text><text x="56" y="188" font-size="13" fill="#111827" font-weight="400">TotalSteps</text><text x="304" y="188" text-anchor="end" font-size="12" fill="#6B7280">걸음수</text><text x="56" y="214" font-size="13" fill="#111827" font-weight="400">VeryActiveMinutes</text><text x="304" y="214" text-anchor="end" font-size="12" fill="#6B7280">고강도(분)</text><text x="56" y="240" font-size="13" fill="#111827" font-weight="400">SedentaryMinutes</text><text x="304" y="240" text-anchor="end" font-size="12" fill="#6B7280">비활동(분)</text><text x="56" y="266" font-size="13" fill="#111827" font-weight="400">Calories</text><text x="304" y="266" text-anchor="end" font-size="12" fill="#6B7280">kcal</text><text x="56" y="292" font-size="13" fill="#111827" font-weight="400">… 9개 열 더</text><text x="304" y="292" text-anchor="end" font-size="12" fill="#6B7280"></text><rect x="380" y="70" width="280" height="184" rx="10" fill="white" stroke="#2A9D8F" stroke-width="2"/><rect x="380" y="70" width="280" height="44" rx="10" fill="#2A9D8F"/><text x="520" y="90" text-anchor="middle" font-size="15" font-weight="700" fill="white">sleepDay_merged.csv</text><text x="520" y="107" text-anchor="middle" font-size="12" fill="white">413행 × 5열 · 24명</text><text x="396" y="136" font-size="13" fill="#E76F51" font-weight="700">Id</text><text x="644" y="136" text-anchor="end" font-size="12" fill="#6B7280">사용자</text><text x="396" y="162" font-size="13" fill="#E76F51" font-weight="700">SleepDay</text><text x="644" y="162" text-anchor="end" font-size="12" fill="#6B7280">… 12:00:00 AM</text><text x="396" y="188" font-size="13" fill="#111827" font-weight="400">TotalSleepRecords</text><text x="644" y="188" text-anchor="end" font-size="12" fill="#6B7280">수면 횟수</text><text x="396" y="214" font-size="13" fill="#111827" font-weight="400">TotalMinutesAsleep</text><text x="644" y="214" text-anchor="end" font-size="12" fill="#6B7280">수면(분)</text><text x="396" y="240" font-size="13" fill="#111827" font-weight="400">TotalTimeInBed</text><text x="644" y="240" text-anchor="end" font-size="12" fill="#6B7280">침대(분)</text><rect x="380" y="284" width="280" height="56" rx="10" fill="#FCE5DE" stroke="#E76F51" stroke-width="2"/><text x="520.0" y="307.45" text-anchor="middle" font-size="14" font-weight="700" fill="#111827">중복 3행 제거 → 410행</text><text x="520.0" y="326.34999999999997" text-anchor="middle" font-size="12" font-weight="400" fill="#111827">drop_duplicates()</text><line x1="520" y1="256" x2="520" y2="282" stroke="#E76F51" stroke-width="2" marker-end="url(#arC)"/><rect x="720" y="150" width="250" height="120" rx="10" fill="#1F3A5F" stroke="#1F3A5F" stroke-width="2"/><text x="845.0" y="194.0" text-anchor="middle" font-size="16" font-weight="700" fill="white">inner merge 결과</text><text x="845.0" y="215.6" text-anchor="middle" font-size="14" font-weight="400" fill="white">410행 (사용자 24명)</text><text x="845.0" y="237.2" text-anchor="middle" font-size="14" font-weight="400" fill="white">+ SleepHours = 분 ÷ 60</text><path d="M180,70 L180,56 L845,56 L845,148" fill="none" stroke="#374151" stroke-width="2" marker-end="url(#ar)"/><line x1="660" y1="312" x2="718" y2="250" stroke="#374151" stroke-width="2" marker-end="url(#ar)"/><text x="845" y="300" text-anchor="middle" font-size="13" font-weight="700" fill="#E76F51">수면 기록이 없는 530일은 빠짐</text><text x="845" y="322" text-anchor="middle" font-size="13" font-weight="400" fill="#6B7280">→ 결합 자체가 ‘선택 편향’을 만든다</text><text x="500.0" y="382" text-anchor="middle" font-size="13" font-weight="400" fill="#6B7280">결합 키: Id + 날짜 (ActivityDate ↔ SleepDay, 날짜형으로 변환 후 비교)</text></svg>